<svg class="{{ $classes ?? '' }}" xmlns="http://www.w3.org/2000/svg" viewBox="0 0 99.35 130">
            <path d="M47.63 19a13 13 0 0 1 4.53-3.37c1.81-.91 4.08-1.37 6-2.21.58-1 1.12-1.93 1.7-3l.69.13a20.35 20.35 0 0 1-3.14 4.6 27.48 27.48 0 0 1-8.68 5.72zm11.28-4.41A22.31 22.31 0 0 1 48.77 21l.79 1.38 4 1.75c3.71-2.15 5.59-3.51 5.47-8.3z" fill-rule="evenodd" fill="#ebedee"/>
            <path d="M57.5 21.21c-3.32 3.63-6 .31-8.16-2.32a14.21 14.21 0 0 0-4.66-4.2 18.23 18.23 0 0 0-5.62-2 11.05 11.05 0 0 0 3 10.15 10.15 10.15 0 0 0 10.61 1.89c-5.31-.35-9-3.88-11.55-8.64 2.33 3.38 7.22 8.69 12.92 8a9.72 9.72 0 0 0 3.49-2.93" fill="#fff" fill-rule="evenodd"/>
            <path d="M56.54 3.66c10.09-1.86 13.28 10.71 8.14 19.42-4.36 8.4-15.1 14.81-15.1 14.81A44.22 44.22 0 0 1 35.3 24.51C28.83 13.85 32.45 7.79 36.83 4.8a8.42 8.42 0 0 1 6-1.07S46 5 46.32 3.37C46.68 1.52 44.39-.2 41.18 0a11.34 11.34 0 0 0-6.85 2.8c-1.22 1.2-9.07 7.57-1.58 21.36C37.59 32.51 49.61 40 49.61 40S73.18 26.87 69.39 9.59C66.53-.62 57.35 0 56.11.3S53 1.37 53 2.73c.43 2.72 2.5 1 3.5.93M24.4 122a.55.55 0 0 1-.6.6h-1a.54.54 0 0 1-.59-.6v-1.8a.87.87 0 0 0-1-1 .85.85 0 0 0-1 1v7.21a.85.85 0 0 0 1 1 .87.87 0 0 0 1-1v-1.82a.53.53 0 0 1 .59-.58h1a.54.54 0 0 1 .6.58v1.82c0 1.77-1 2.64-3.13 2.64s-3.12-.87-3.12-2.64v-7.21c0-1.77 1-2.64 3.12-2.64s3.13.87 3.13 2.64zM29.12 118.18a.54.54 0 0 1 .6-.58h1a.53.53 0 0 1 .59.58v9.18a1 1 0 1 0 1.93 0v-9.18a.53.53 0 0 1 .59-.58h1a.53.53 0 0 1 .6.58v9.18c0 1.77-1 2.64-3.13 2.64s-3.12-.87-3.12-2.64zM42.29 129.32a.55.55 0 0 1-.6.59h-1a.55.55 0 0 1-.6-.59v-11.14a.54.54 0 0 1 .6-.58h1a.54.54 0 0 1 .6.58zM50 122.22l1.9 1.74a3.76 3.76 0 0 1 1.31 3.4c0 1.77-1 2.64-3.11 2.64s-3.12-.87-3.12-2.64V126a.54.54 0 0 1 .58-.6h1a.53.53 0 0 1 .58.6v1.34a1 1 0 1 0 1.94 0 2.29 2.29 0 0 0-.87-2.07l-1.92-1.74c-1.07-1-1.3-1.75-1.3-3.4s1-2.64 3.12-2.64 3.11.87 3.11 2.64v1.34a.52.52 0 0 1-.58.58h-1a.52.52 0 0 1-.58-.58v-1.34a1 1 0 0 0-1.94 0 2.26 2.26 0 0 0 .87 2.07M60 129.32a.54.54 0 0 1-.59.59h-1a.54.54 0 0 1-.6-.59v-11.14a.53.53 0 0 1 .6-.58h1a.53.53 0 0 1 .59.58zM69.09 118.18a.53.53 0 0 1 .6-.58h.85a.52.52 0 0 1 .58.58v11.14a.53.53 0 0 1-.58.59h-1.07a.57.57 0 0 1-.6-.44l-1.41-4.57-.75-2.81h-.15l.22 2.89v4.32a.53.53 0 0 1-.58.59h-.85a.54.54 0 0 1-.6-.59v-11.12a.53.53 0 0 1 .6-.58h1.05a.57.57 0 0 1 .6.44l1.41 4.58.75 2.8h.15l-.22-2.9zM80.61 117.6a.53.53 0 0 1 .59.57v.5a.54.54 0 0 1-.59.59H78v3.66h2a.54.54 0 0 1 .6.58v.5a.55.55 0 0 1-.6.6h-2v3.66h2.57a.53.53 0 0 1 .59.58v.49a.54.54 0 0 1-.59.59h-4.1a.54.54 0 0 1-.59-.59v-11.16a.53.53 0 0 1 .59-.57zM14 87.63H9.32c-3.48 0-6-.68-7.42-2Q0 83.88 0 80V67.12h3.23v12.54a5.63 5.63 0 0 0 1.1 3.92Q5.66 85 9.32 85H14zM32.06 77.38a16.54 16.54 0 0 1-1.19 7.09c-1.23 2.53-3.5 3.81-6.87 3.81s-5.6-1.28-6.82-3.81A16.37 16.37 0 0 1 16 77.38a16.43 16.43 0 0 1 1.2-7.09q1.8-3.76 6.8-3.76c3.33 0 5.6 1.25 6.83 3.76a16.61 16.61 0 0 1 1.19 7.09m-3.33 0a19.6 19.6 0 0 0-.46-5.1A4.15 4.15 0 0 0 24 69.16a4.16 4.16 0 0 0-4.26 3.12 19.5 19.5 0 0 0-.47 5.1 20.1 20.1 0 0 0 .47 5.15A4.16 4.16 0 0 0 24 85.59a4.14 4.14 0 0 0 4.23-3.06 20.21 20.21 0 0 0 .46-5.15M48.21 87.63h-3.19v-9.18h-7.89v9.18h-3.2V67.12h3.2v8.73h7.89v-8.73h3.19v20.51zM65.22 87.63H61.1q-5.62 0-7.86-2c-1.51-1.27-2.24-3.55-2.24-6.8V67.12h14.22v2.63h-11v6h10.51v2.65H54.21v.43c0 2.34.48 4 1.46 4.88S58.45 85 61.1 85h4.12zM82.64 87.63h-3.5l-3.53-7.76a12 12 0 0 1-1.76.11h-2.6v7.65H68V67.12h5.83q8.49 0 8.49 6.44a5.69 5.69 0 0 1-3.46 5.59zm-3.53-14.07a3.39 3.39 0 0 0-1-2.68c-.8-.75-2.23-1.13-4.29-1.13h-2.6v7.6h2.6c2.06 0 3.49-.38 4.29-1.16a3.32 3.32 0 0 0 1-2.63M99.35 81.54a5.21 5.21 0 0 1-3 4.86 12.31 12.31 0 0 1-5.69 1.23h-5.59V67.12h6a10.12 10.12 0 0 1 5.19 1.23 4.55 4.55 0 0 1 2.26 4.09 4.4 4.4 0 0 1-2.19 4.18 4.93 4.93 0 0 1 3 4.92m-4-9.1q0-2.68-4.22-2.69h-2.85v6h2q5 0 5-3.27m.84 9.1a2.73 2.73 0 0 0-1.4-2.47 5 5 0 0 0-2.83-.78h-3.61V85h2.37c3.68 0 5.53-1.15 5.53-3.46" fill="#fff"/>
</svg>
